<?xml version="1.0" encoding="UTF-8" standalone="no"?>
<svg width="103px" height="106px" viewBox="0 0 103 106" version="1.1" xmlns="http://www.w3.org/2000/svg" xmlns:xlink="http://www.w3.org/1999/xlink">
    <!-- Generator: Sketch 39.1 (31720) - http://www.bohemiancoding.com/sketch -->
    <title>Group</title>
    <desc>Created with Sketch.</desc>
    <defs></defs>
    <g id="Page-1" stroke="none" stroke-width="1" fill="none" fill-rule="evenodd">
        <g id="SportclubHetEiland_hoofdlogo_zonderURL_neg" transform="translate(-157.000000, 0.000000)" fill="#FFFFFF">
            <g id="Group" transform="translate(157.000000, 0.000000)">
                <path d="M56.323,55.798 L63.508,35.638 L55.276,37.914 C53.618,38.373 51.492,39.077 49.031,39.893 C37.948,43.565 19.512,49.669 0.416,48.506 L0.416,57.401 C19.516,58.432 38.021,52.85 49.261,49.167 L44.661,62.072 L40.782,72.928 L50.931,67.48 C50.98,67.454 55.94,64.858 65.646,62.316 C78.558,58.934 91.821,57.714 102.373,57.377 L102.373,48.488 C80.634,49.13 65.313,52.828 56.323,55.798" id="Fill-12"></path>
                <path d="M52.46,13.7 L81.011,42.25 C84.729,41.754 88.734,41.342 93.004,41.035 L52.46,0.491 L12.574,40.378 C18.124,39.887 23.478,38.898 28.456,37.704 L52.46,13.7" id="Fill-13"></path>
                <path d="M52.46,92.243 L23.905,63.688 C23.907,63.733 23.902,63.781 23.904,63.826 C20.108,64.455 16.19,64.916 12.199,65.19 L52.46,105.452 L91.964,65.948 C86.635,66.412 81.542,67.095 76.71,67.993 L52.46,92.243" id="Fill-14"></path>
            </g>
        </g>
    </g>
</svg>