<?xml version="1.0" encoding="UTF-8"?>
<svg width="220px" height="26px" viewBox="0 0 220 26" version="1.1" xmlns="http://www.w3.org/2000/svg" xmlns:xlink="http://www.w3.org/1999/xlink">
    <!-- Generator: Sketch 41.2 (35397) - http://www.bohemiancoding.com/sketch -->
    <title>Group 8</title>
    <desc>Created with Sketch.</desc>
    <defs></defs>
    <g id="Page-1" stroke="none" stroke-width="1" fill="none" fill-rule="evenodd">
        <g id="Desktop" transform="translate(-87.000000, -514.000000)" fill="#FFFFFF">
            <g id="Group-5" transform="translate(87.000000, 514.000000)">
                <g id="Group-8">
                    <text id="Deel-dit-verhaal-op" font-family="Oswald-Bold, Oswald" font-size="14" font-weight="bold" line-spacing="8" letter-spacing="0.116666667">
                        <tspan x="36" y="28">Deel dit verhaal op Facebook</tspan>
                    </text>
                    <g id="iconmonstr-facebook-4">
                        <path d="M13,0 C5.82075,0 0,5.82075 0,13 C0,20.17925 5.82075,26 13,26 C20.17925,26 26,20.17925 26,13 C26,5.82075 20.17925,0 13,0 L13,0 Z M16.25,8.66666667 L14.7875,8.66666667 C14.2046667,8.66666667 14.0833333,8.90608333 14.0833333,9.5095 L14.0833333,10.8333333 L16.25,10.8333333 L16.0235833,13 L14.0833333,13 L14.0833333,20.5833333 L10.8333333,20.5833333 L10.8333333,13 L8.66666667,13 L8.66666667,10.8333333 L10.8333333,10.8333333 L10.8333333,8.333 C10.8333333,6.41658333 11.8419167,5.41666667 14.11475,5.41666667 L16.25,5.41666667 L16.25,8.66666667 L16.25,8.66666667 Z" id="Shape"></path>
                    </g>
                </g>
            </g>
        </g>
    </g>
</svg>