<?xml version="1.0" encoding="UTF-8"?>
<svg width="143px" height="37px" viewBox="0 0 143 37" version="1.1" xmlns="http://www.w3.org/2000/svg" xmlns:xlink="http://www.w3.org/1999/xlink">
    <!-- Generator: Sketch 41.2 (35397) - http://www.bohemiancoding.com/sketch -->
    <title>Group 7</title>
    <desc>Created with Sketch.</desc>
    <defs></defs>
    <g id="Page-1" stroke="none" stroke-width="1" fill="none" fill-rule="evenodd">
        <g id="Desktop" transform="translate(-702.000000, -314.000000)">
            <g id="Group-6" transform="translate(702.000000, 314.000000)">
                <g id="Group-7">
                    <g id="Group">
                        <circle id="Oval" fill="#000000" cx="18.5" cy="18.5" r="18.5"></circle>
                        <polygon id="Triangle" fill="#FFFFFF" points="16.7790698 24.5232558 16.7790698 12.4767442 23.931686 18.5"></polygon>
                    </g>
                    <path d="M52.1396484,24.7412109 L52.4384766,24.7412109 C52.8544943,24.7412109 53.191405,24.6928716 53.4492188,24.5961914 C53.7070325,24.4995112 53.9033196,24.3339855 54.0380859,24.0996094 C54.1728522,23.8652332 54.2622068,23.6000991 54.3061523,23.3041992 C54.3500979,23.0082993 54.3720703,22.6113306 54.3720703,22.1132812 C54.3720703,21.2871052 54.2270522,20.6455101 53.9370117,20.1884766 C53.6469712,19.731443 53.1533238,19.5029297 52.4560547,19.5029297 L52.1396484,19.5029297 L52.1396484,24.7412109 Z M52.1220703,17.4023438 L52.6669922,17.4023438 C52.9599624,17.4023438 53.2060537,17.3466802 53.4052734,17.2353516 C53.6044932,17.1240229 53.7553706,16.9614269 53.8579102,16.7475586 C53.9604497,16.5336903 54.0322264,16.3037122 54.0732422,16.0576172 C54.114258,15.8115222 54.1347656,15.521486 54.1347656,15.1875 C54.1347656,14.9238268 54.1157228,14.6923838 54.0776367,14.4931641 C54.0395506,14.2939443 53.9970705,14.1284186 53.9501953,13.996582 C53.9033201,13.8647454 53.8242193,13.7534184 53.7128906,13.6625977 C53.6015619,13.5717769 53.5034184,13.5043948 53.418457,13.4604492 C53.3334957,13.4165037 53.2045907,13.3842774 53.0317383,13.3637695 C52.8588859,13.3432616 52.7197271,13.331543 52.6142578,13.3286133 C52.5087885,13.3256836 52.3447277,13.3242188 52.1220703,13.3242188 L52.1220703,17.4023438 Z M48.9404297,27 L48.9404297,11.1796875 L52.2011719,11.1796875 C52.7871123,11.1796875 53.304197,11.2104489 53.7524414,11.2719727 C54.2006858,11.3334964 54.6401346,11.4536124 55.0708008,11.6323242 C55.501467,11.811036 55.8559556,12.0498032 56.1342773,12.3486328 C56.412599,12.6474624 56.6352531,13.0415015 56.8022461,13.5307617 C56.9692391,14.020022 57.0527344,14.5986295 57.0527344,15.2666016 C57.0527344,16.0927776 56.8579121,16.7431617 56.4682617,17.2177734 C56.0786113,17.6923852 55.4736369,18.0673814 54.6533203,18.3427734 C56.5341891,18.799807 57.4746094,20.1298718 57.4746094,22.3330078 C57.4746094,23.9209064 57.0937538,25.0956993 56.3320312,25.8574219 C55.5703087,26.6191444 54.4072344,27 52.8427734,27 L48.9404297,27 Z M58.9599609,27 L58.9599609,11.1796875 L65.5605469,11.1796875 L65.5605469,13.3769531 L62.1591797,13.3769531 L62.1591797,17.6835938 L64.5673828,17.6835938 L64.5673828,19.9335938 L62.1591797,19.9335938 L62.1591797,24.8027344 L65.5605469,24.8027344 L65.5605469,27 L58.9599609,27 Z M66.703125,27 L66.703125,11.1796875 L69.9023438,11.1796875 L69.9023438,17.1826172 L72.3808594,11.1796875 L75.9580078,11.1796875 L72.7324219,17.6572266 L76.1953125,27 L72.8730469,27 L70.4824219,19.7666016 L69.9023438,21.2607422 L69.9023438,27 L66.703125,27 Z M76.8017578,27 L76.8017578,11.1796875 L80.0009766,11.1796875 L80.0009766,27 L76.8017578,27 Z M80.9414062,27.2988281 L80.9414062,25.0488281 C81.7148476,25.0605469 82.2304675,24.9448254 82.4882812,24.7016602 C82.746095,24.4584949 82.875,23.9501992 82.875,23.1767578 L82.875,11.1796875 L86.0742188,11.1796875 L86.0742188,23.203125 C86.0742188,23.783206 86.046387,24.2768534 85.9907227,24.684082 C85.9350583,25.0913106 85.8310554,25.4692365 85.6787109,25.8178711 C85.5263664,26.1665056 85.3183607,26.4433583 85.0546875,26.6484375 C84.7910143,26.8535167 84.4497091,27.013183 84.0307617,27.1274414 C83.6118143,27.2416998 83.1064483,27.2988281 82.5146484,27.2988281 L80.9414062,27.2988281 Z M87.9550781,27 L87.9550781,11.1796875 L91.1542969,11.1796875 L91.1542969,17.1826172 L93.6328125,11.1796875 L97.2099609,11.1796875 L93.984375,17.6572266 L97.4472656,27 L94.125,27 L91.734375,19.7666016 L91.1542969,21.2607422 L91.1542969,27 L87.9550781,27 Z M103.731445,27 L100.822266,11.1796875 L103.854492,11.1796875 L105.251953,20.7685547 L106.798828,11.1796875 L109.787109,11.1796875 L106.658203,27 L103.731445,27 Z M110.833008,27 L110.833008,11.1796875 L114.032227,11.1796875 L114.032227,27 L110.833008,27 Z M115.913086,27 L115.913086,11.1796875 L119.217773,11.1796875 C120.272466,11.1796875 121.14111,11.2749014 121.82373,11.465332 C122.506351,11.6557627 123.042479,11.9692361 123.432129,12.4057617 C123.821779,12.8422873 124.091308,13.3652313 124.240723,13.9746094 C124.390137,14.5839874 124.464844,15.3603468 124.464844,16.3037109 L124.464844,21.4892578 C124.464844,22.0517606 124.447266,22.5424784 124.412109,22.9614258 C124.376953,23.3803732 124.311036,23.7905253 124.214355,24.1918945 C124.117675,24.5932637 123.985841,24.9331041 123.818848,25.2114258 C123.651855,25.4897475 123.436525,25.7490222 123.172852,25.9892578 C122.909178,26.2294934 122.59131,26.4199212 122.219238,26.5605469 C121.847166,26.7011726 121.410647,26.8095699 120.909668,26.8857422 C120.408689,26.9619144 119.833011,27 119.182617,27 L115.913086,27 Z M119.235352,24.7587891 C119.540041,24.7587891 119.780273,24.7543946 119.956055,24.7456055 C120.131837,24.7368164 120.307616,24.7148439 120.483398,24.6796875 C120.659181,24.6445311 120.788086,24.5961917 120.870117,24.534668 C120.952149,24.4731442 121.02832,24.3837896 121.098633,24.2666016 C121.168946,24.1494135 121.214355,24.0102547 121.234863,23.8491211 C121.255371,23.6879875 121.265625,23.4873059 121.265625,23.2470703 L121.265625,14.7304688 C121.265625,14.2089818 121.110353,13.8632821 120.799805,13.6933594 C120.489256,13.5234367 119.967777,13.4355469 119.235352,13.4296875 L119.235352,24.7587891 Z M126.143555,27 L126.143555,11.1796875 L132.744141,11.1796875 L132.744141,13.3769531 L129.342773,13.3769531 L129.342773,17.6835938 L131.750977,17.6835938 L131.750977,19.9335938 L129.342773,19.9335938 L129.342773,24.8027344 L132.744141,24.8027344 L132.744141,27 L126.143555,27 Z M133.68457,21.796875 L133.68457,16.4794922 C133.68457,12.7411922 135.225571,10.8720703 138.307617,10.8720703 C141.395523,10.8720703 142.939453,12.7411922 142.939453,16.4794922 L142.939453,21.7177734 C142.939453,22.3505891 142.892579,22.9350559 142.798828,23.4711914 C142.705078,24.0073269 142.545411,24.5156226 142.319824,24.9960938 C142.094237,25.4765649 141.807131,25.8852522 141.458496,26.222168 C141.109862,26.5590837 140.668948,26.8242178 140.135742,27.0175781 C139.602536,27.2109385 138.993167,27.3076172 138.307617,27.3076172 C137.627926,27.3076172 137.021487,27.2124033 136.488281,27.0219727 C135.955075,26.831542 135.515627,26.5737321 135.169922,26.2485352 C134.824217,25.9233382 134.538575,25.5249047 134.312988,25.0532227 C134.087401,24.5815406 133.92627,24.0791042 133.82959,23.5458984 C133.73291,23.0126926 133.68457,22.4296907 133.68457,21.796875 Z M139.740234,22.5175781 L139.740234,15.6796875 C139.740234,14.121086 139.2627,13.3417969 138.307617,13.3417969 C138.020506,13.3417969 137.777345,13.4135735 137.578125,13.5571289 C137.378905,13.7006843 137.232422,13.8969714 137.138672,14.1459961 C137.044921,14.3950208 136.979004,14.6411121 136.940918,14.8842773 C136.902832,15.1274426 136.883789,15.3925767 136.883789,15.6796875 L136.883789,22.5175781 C136.883789,24.0703203 137.358394,24.8466797 138.307617,24.8466797 C139.2627,24.8466797 139.740234,24.0703203 139.740234,22.5175781 Z" id="BEKIJK-VIDEO" fill="#FFFFFF"></path>
                </g>
            </g>
        </g>
    </g>
</svg>