<?xml version="1.0" encoding="UTF-8" standalone="no"?>
<svg width="488px" height="191px" viewBox="0 0 488 191" version="1.1" xmlns="http://www.w3.org/2000/svg" xmlns:xlink="http://www.w3.org/1999/xlink">
    <!-- Generator: Sketch 39.1 (31720) - http://www.bohemiancoding.com/sketch -->
    <title>Group</title>
    <desc>Created with Sketch.</desc>
    <defs></defs>
    <g id="Page-1" stroke="none" stroke-width="1" fill="none" fill-rule="evenodd">
        <g id="SportclubHetEiland_Sublogo_Bodyfit_neg" transform="translate(-81.000000, -251.000000)" fill="#000000">
            <g id="Group" transform="translate(81.000000, 251.000000)">
                <path d="M96.209,43.272 C95.316,46.198 94.571,49.255 94.571,50.745 C88.431,66.968 82.766,83.381 76.839,99.683 C77.316,99.403 77.555,99.263 78.031,98.983 C98.989,85.945 142.166,68.234 146.571,40.347 C146.571,37.365 141.059,35.253 122.732,37.538 C113.493,38.69 112.451,38.889 96.209,43.272 L96.209,43.272 Z M39.142,189.304 C38.397,189.34 37.19,189.8 35.864,190.053 C32.6,190.674 28.265,188.866 28.265,185.737 C28.265,185.14 28.265,184.545 28.564,183.937 C45.596,138.34 65.279,93.582 80.862,47.461 C50.358,55.343 26.949,63.966 8.001,90.223 C6.958,91.426 5.468,92.034 4.276,92.04 C2.339,92.049 0.681,90.687 0.701,88.769 C1.175,42.648 89.301,29.809 123.029,25.281 C133.384,23.891 146.224,22.559 155.66,28.328 C160.428,31.665 162.698,36.021 162.514,40.295 C161.577,61.985 128.51,81.487 112.451,92.584 C117.07,91.446 121.437,90.409 125.264,89.978 C134.143,88.978 148.293,92.544 148.955,102.755 C149.199,106.511 147.018,111.378 142.399,116.63 C125.796,139.692 98.365,183.622 69.091,187.666 C61.413,188.726 54.638,180.374 54.638,172.326 C54.638,166.663 57.32,160.84 63.429,158 C66.26,157.789 66.26,159.275 66.26,160.765 C64.771,163.862 63.429,173.052 63.429,173.052 C63.578,173.041 65.825,176.01 65.962,175.99 C89.907,172.45 113.034,134.036 125.86,114.492 C128.542,110.278 131.076,105.925 133.46,101.438 C133.46,101.438 131.949,101.325 128.542,101.78 C108.381,104.478 78.049,111.055 69.836,119.35 C59.792,129.493 53.774,165.797 43.91,188.166 C42.867,188.222 40.632,189.232 39.142,189.304 L39.142,189.304 Z" id="Fill-3"></path>
                <path d="M196.876,82.542 C196.876,88.205 192.407,99.199 191.065,99.411 C190.32,99.529 189.873,96.321 189.873,96.321 C191.214,91.639 191.81,88.117 191.959,84.069 L191.959,82.579 C191.959,77.511 189.883,75.481 188.681,76.091 C180.924,80.031 174.575,98.84 170.355,110.214 C166.429,120.796 161.321,132.759 160.819,143.822 C160.767,144.96 161.133,145.822 161.564,145.651 C170.868,141.96 178.345,124.832 183.913,113.649 C183.675,113.686 183.556,113.705 183.318,113.742 C178.996,114.265 176.314,111.545 176.314,107.073 C176.314,103.645 179.592,100.014 183.019,99.481 C186.446,98.948 188.83,101.404 188.83,105.726 L188.83,106.471 C199.409,102.57 209.392,89.914 210.584,89.72 C211.031,89.647 211.776,90.27 211.926,90.692 C206.617,100.204 197.506,108.124 187.638,112.619 C187.519,112.936 187.459,113.094 187.34,113.411 C182.36,126.381 171.866,148.325 158.882,151.855 C150.066,154.253 145.77,145.525 145.77,137.179 C145.77,133.006 146.515,128.581 147.409,125.028 C154.029,106.748 165.453,74.698 187.34,70.639 C194.839,69.249 196.876,75.686 196.876,82.542" id="Fill-4"></path>
                <path d="M235.499,104.546 C236.155,102.708 236.482,101.79 237.138,99.952 C240.267,91.386 242.949,79.614 242.949,72.908 C242.949,69.481 241.283,67.073 239.969,67.739 C231.96,71.794 225.188,90.622 220.897,102.189 C216.961,112.795 211.865,124.835 211.361,135.941 C211.31,137.078 212.43,137.816 212.851,137.635 C221.733,133.831 229.365,115.49 235.499,104.546 L235.499,104.546 Z M266.193,104.531 C268.875,99.917 270.663,97.984 271.408,97.862 C271.557,97.838 272.451,97.542 273.643,97.347 C273.643,97.347 269.471,105.78 267.832,107.987 C261.651,118.55 253.399,134.019 242.055,136.991 C237.542,138.173 230.582,134.272 230.582,125.032 C230.582,123.989 230.582,122.797 230.88,121.407 C225.121,130.1 218.813,141.081 210.169,143.885 C201.766,146.612 197.057,137.803 197.057,129.458 C197.057,125.285 197.802,120.844 198.696,117.273 C205.316,98.865 216.689,66.571 238.628,62.298 C244.969,61.063 247.866,64.79 248.015,70.726 C248.67,69.127 248.998,68.328 249.654,66.729 C254.98,53.395 260.151,39.975 266.342,27.01 C267.832,24.082 269.024,22.247 270.068,22.076 C272.303,21.709 275.133,24.824 275.133,24.824 C275.133,24.824 277.517,27.863 277.517,31.291 C277.517,31.589 277.368,32.06 277.07,32.854 C276.475,35.484 274.835,37.838 274.09,40.344 C273.911,40.731 273.822,40.924 273.643,41.311 C272.898,42.924 272.303,44.511 272.005,45.752 C271.855,46.224 271.558,47.167 271.11,48.134 C260.912,73.79 244.448,104.078 243.397,130.807 C243.335,132.38 244.056,133.226 244.737,132.968 C252.907,129.874 260.949,113.513 266.193,104.531 L266.193,104.531 Z" id="Fill-5"></path>
                <path d="M287.636,142.023 C276.549,148.746 264.566,160.222 264.542,173.207 C264.537,175.716 265.963,177.973 267.819,177.735 C275.826,176.706 280.839,163.092 283.315,154.94 C284.06,152.435 285.699,147.849 287.636,142.023 L287.636,142.023 Z M297.47,153.571 C292.135,165.606 286.347,179.044 272.141,181.646 C265.583,182.847 257.944,181.222 257.836,174.314 C257.574,157.57 275.842,143.29 289.723,135.43 C291.749,129.8 292.762,126.985 294.788,121.358 C289.126,128.666 283.911,132.04 279.59,132.742 C274.078,133.637 267.562,127.838 267.819,120.06 C268.228,107.675 273.076,94.644 277.057,82.781 C280.545,72.388 284.591,55.576 290.468,52.002 C290.547,51.954 290.914,51.781 291.063,51.758 C293.298,51.401 297.619,54.293 297.619,54.293 C299.259,56.122 300.349,59.115 300.004,61.518 C299.745,63.316 297.321,69.238 290.765,85.784 C286.951,95.336 285.044,100.114 281.229,109.674 C280.335,112.055 277.355,120.437 277.355,125.207 C277.355,127.591 278.343,129.405 280.037,128.944 C292.588,125.524 300.684,104.78 304.771,92.815 C308.448,82.049 311.327,71.981 312.37,67.649 C316.244,56.923 319.969,49.356 324.29,48.717 C328.611,48.078 330.101,52.188 330.697,60.596 C323.54,80.513 317.187,100.719 310.284,120.725 C318.875,114.088 324.767,104.322 330.399,95.215 C330.578,94.95 330.667,94.818 330.846,94.553 C333.826,89.8 335.316,88.098 335.911,88.014 C336.657,87.908 338.147,87.549 338.296,87.528 C337.253,89.91 334.134,95.728 332.783,97.851 C326.238,108.135 318.307,119.328 308.05,126.881 C307.871,127.505 307.781,127.817 307.602,128.441 C304.324,137.442 300.798,146.063 297.47,153.571 L297.47,153.571 Z" id="Fill-6"></path>
                <path d="M325.438,145.417 C323.651,145.531 321.832,145.838 320.075,146.065 C311.781,147.137 299.08,150.753 298.917,161.092 C298.905,161.827 298.917,162.583 299.066,163.453 C299.96,169.275 306.516,170.486 308.304,170.359 C308.661,170.303 308.84,170.276 309.198,170.221 C313.967,169.486 318.883,163.826 322.756,153.713 C323.502,151.664 324.396,148.849 325.438,145.417 L325.438,145.417 Z M341.531,137.297 C362.715,136.162 383.946,139.847 404.856,138.754 C416.112,138.165 427.066,132.471 430.633,121.013 C431.207,137.716 420.477,148.447 404.856,149.484 C383.61,150.894 360.975,145.197 339.147,144.933 C334.711,158.822 326.106,173.172 310.39,175.104 C303.133,175.997 295.194,170.414 295.49,161.038 C295.954,146.351 323.031,142.373 327.375,138.873 C329.223,137.384 331.101,128.494 333.038,122.404 C335.541,114.592 336.793,110.689 339.296,102.886 C338.253,103.032 336.018,103.349 335.124,103.029 C330.952,102.283 328.12,100.762 328.12,96.291 C328.12,92.864 331.399,89.255 334.826,88.765 C338.253,88.276 340.409,91.023 340.637,95.097 C340.707,96.35 341.083,96.674 341.382,96.781 C343.11,91.712 343.974,89.178 345.702,84.113 C351.06,68.645 356.15,52.818 363.434,38.114 C371.48,22.198 375.503,19.803 377.142,19.612 C379.377,19.352 383.101,22.211 383.101,22.211 C383.101,22.211 384.591,25.771 384.591,29.498 C382.953,32.063 377.737,38.47 377.589,39.977 C370.201,59.377 362.917,78.816 355.685,98.274 C356.282,98.346 357.027,98.398 357.772,98.301 C358.367,98.224 358.964,98.295 359.56,98.219 C371.479,96.688 375.502,82.694 377.142,82.503 C377.291,82.486 378.036,81.654 378.929,81.552 C379.377,81.5 379.824,81.598 380.271,81.994 C380.032,82.439 379.913,82.661 379.674,83.106 C375.113,93.314 367.814,102.39 355.983,103.899 C355.092,104.013 354.345,104.114 353.451,104.083 C352.259,107.519 351.364,110.615 347.342,120.849 C345.107,126.667 343.17,132.151 341.531,137.297 L341.531,137.297 Z" id="Fill-7"></path>
                <path d="M400.969,19.6 C400.969,13.49 408.717,8.879 413.783,8.448 C416.911,8.182 419.445,9.323 419.445,12.154 C419.445,17.371 412.889,22.357 405.141,23.079 C402.161,23.356 400.969,21.687 400.969,19.6 L400.969,19.6 Z M386.069,105.788 C386.069,108.768 387.266,111.355 389.347,110.799 C399.188,108.17 408.961,94.354 415.421,84.614 C418.414,80.102 419.892,78.437 420.488,78.39 C421.233,78.332 422.723,78.069 422.872,78.057 C421.829,80.372 418.702,86 417.359,88.031 C410.498,98.403 399.662,115.656 386.516,117.662 C381.269,118.462 374.461,112.141 374.745,104.393 C375.342,88.12 382.565,70.451 388.602,54.843 C392.625,44.724 397.542,37.372 399.479,37.182 C401.714,36.963 404.545,40.273 404.545,40.273 C404.545,40.273 407.375,43.439 407.375,46.867 C407.375,47.761 404.098,55.367 403.502,56.615 C398.472,69.339 393.303,82.007 388.155,94.683 C387.558,96.237 386.068,101.615 386.069,105.788 L386.069,105.788 Z" id="Fill-8"></path>
                <path d="M429.338,111.862 C424.272,112.216 416.375,108.231 416.375,98.99 C416.375,97.947 416.375,96.755 416.673,95.538 C420.415,73.46 431.641,51.248 440.215,30.84 C432.718,31.48 416.421,33.091 416.226,21.805 C416.211,20.926 416.673,20.426 417.418,20.365 C418.163,20.305 419.504,20.495 419.653,21.974 C419.802,23.453 432.02,23.101 442.003,22.541 C442.718,22.501 443.076,22.481 443.791,22.443 C446.771,16.022 449.304,9.639 452.135,4.595 C453.625,1.846 454.817,0.157 455.86,0.115 C458.095,0.025 460.926,3.504 460.926,3.504 C460.926,3.504 463.311,6.854 463.31,10.282 C463.31,10.58 463.012,11.036 462.714,11.939 C462.118,15.386 459.734,18.746 458.393,22.074 C470.818,22.066 487.374,24.624 487.299,40.304 C487.296,41.046 486.256,42.838 485.809,42.839 C485.66,42.839 485.489,42.668 485.511,42.244 C486.227,27.937 465.785,29.548 456.754,30.184 C456.158,30.207 455.86,30.219 455.264,30.243 C445.601,53.789 433.648,78.686 429.487,103.954 C429.636,105.434 430.873,107.4 432.765,107.01 C441.916,105.122 450.113,90.679 455.86,82.082 C458.827,77.644 460.33,76.102 460.926,76.082 C461.671,76.056 463.161,75.86 463.31,75.856 C462.267,78.123 459.147,83.614 457.797,85.584 C456.429,87.579 449.155,98.879 440.513,106.828 C436.639,110.331 432.467,111.645 429.338,111.862" id="Fill-9"></path>
            </g>
        </g>
    </g>
</svg>