<?xml version="1.0" encoding="UTF-8"?>
<svg width="474px" height="133px" viewBox="0 0 474 133" version="1.1" xmlns="http://www.w3.org/2000/svg" xmlns:xlink="http://www.w3.org/1999/xlink">
    <!-- Generator: Sketch 41.2 (35397) - http://www.bohemiancoding.com/sketch -->
    <title>Group</title>
    <desc>Created with Sketch.</desc>
    <defs></defs>
    <g id="Page-1" stroke="none" stroke-width="1" fill="none" fill-rule="evenodd">
        <g id="SportclubHetEiland_Sublogo_Running_Kleur-neg" transform="translate(-88.000000, -280.000000)" fill="#FFFFFF">
            <g id="Group" transform="translate(88.000000, 280.000000)">
                <path d="M40.483,55.891 C46.058,55.891 47.21,54.93 47.98,49.548 L51.247,28.787 C51.439,28.018 51.439,27.057 51.439,26.48 C51.439,24.173 50.093,23.021 47.019,23.021 L44.328,23.021 L39.137,55.891 L40.483,55.891 Z M20.299,2.259 L52.786,2.259 C63.935,2.259 67.586,2.837 72.2,5.72 C76.813,8.604 79.504,13.601 79.504,19.752 C79.504,21.482 79.12,25.134 78.543,28.403 L75.275,50.124 C73.546,61.658 70.47,65.693 61.435,68.386 C67.779,71.461 70.277,74.536 70.277,79.919 C70.277,81.649 70.085,84.533 69.509,87.415 L62.973,130.475 L35.677,130.475 L41.828,89.338 C42.789,83.763 42.789,83.763 42.789,82.61 C42.789,80.304 41.444,79.342 37.6,79.342 C37.407,79.342 36.446,79.342 35.485,79.535 L27.604,130.475 L0.5,130.475 L20.299,2.259 L20.299,2.259 Z" id="Fill-22"></path>
                <path d="M137.228,103.947 C133.575,127.591 128.001,132.396 103.204,132.396 C82.251,132.396 73.793,127.398 73.793,114.52 C73.793,112.213 74.178,107.792 74.947,103.563 L90.518,2.259 L117.621,2.259 L102.243,102.794 C101.859,105.101 101.666,106.83 101.666,107.6 C101.666,109.714 103.011,111.06 105.318,111.06 C108.202,111.06 109.163,109.521 110.124,103.371 L125.694,2.259 L152.991,2.259 L137.228,103.947" id="Fill-23"></path>
                <polyline id="Fill-24" points="161.37 2.259 189.242 2.259 191.549 64.925 201.353 2.259 224.419 2.259 204.813 130.475 178.286 130.475 175.595 64.925 165.599 130.475 141.571 130.475 161.37 2.259"></polyline>
                <polyline id="Fill-25" points="233.916 2.259 261.788 2.259 264.095 64.925 273.898 2.259 296.965 2.259 277.358 130.475 250.831 130.475 248.141 64.925 238.145 130.475 214.117 130.475 233.916 2.259"></polyline>
                <polyline id="Fill-26" points="306.46 2.259 333.756 2.259 313.957 130.475 286.661 130.475 306.46 2.259"></polyline>
                <polyline id="Fill-27" points="342.384 2.259 370.256 2.259 372.563 64.925 382.367 2.259 405.434 2.259 385.827 130.475 359.3 130.475 356.608 64.925 346.612 130.475 322.585 130.475 342.384 2.259"></polyline>
                <path d="M441.975,122.017 C437.17,129.705 431.979,132.012 419.677,132.012 C404.876,132.012 396.802,126.245 396.802,115.673 C396.802,113.174 397.187,109.906 397.764,106.062 L409.873,27.057 C413.142,5.528 419.484,0.722 444.475,0.722 C465.427,0.722 473.5,5.72 473.5,18.792 C473.5,20.137 473.308,21.867 473.116,23.597 L469.463,47.048 L441.975,47.048 L444.858,28.787 C445.051,27.634 445.051,27.057 445.051,25.712 C445.051,23.405 443.706,22.06 441.591,22.06 C439.091,22.06 437.554,23.982 436.978,27.825 L425.444,103.947 C425.252,105.101 425.059,106.254 425.059,106.83 C425.059,109.138 426.405,110.482 428.711,110.482 C431.403,110.482 432.556,108.945 433.325,103.755 L436.017,85.686 L431.979,85.686 L435.248,64.541 L466.772,64.541 L456.584,130.475 L444.858,130.475 L441.975,122.017" id="Fill-28"></path>
            </g>
        </g>
    </g>
</svg>