<?xml version="1.0" encoding="UTF-8" standalone="no"?>
<svg width="436px" height="131px" viewBox="0 0 436 131" version="1.1" xmlns="http://www.w3.org/2000/svg" xmlns:xlink="http://www.w3.org/1999/xlink">
    <!-- Generator: Sketch 39.1 (31720) - http://www.bohemiancoding.com/sketch -->
    <title>Group</title>
    <desc>Created with Sketch.</desc>
    <defs></defs>
    <g id="Page-1" stroke="none" stroke-width="1" fill="none" fill-rule="evenodd">
        <g id="SportclubHetEiland_Sublogo_BoxingPhysics_neg" transform="translate(-107.000000, -251.000000)" fill="#FFFFFF">
            <g id="Group" transform="translate(107.000000, 251.000000)">
                <polyline id="Fill-10" points="209.736 130.957 231.777 130.957 218.842 99.251 196.792 99.251 209.736 130.957"></polyline>
                <polyline id="Fill-11" points="157.044 130.957 179.085 130.957 192.029 99.251 169.979 99.251 157.044 130.957"></polyline>
                <polyline id="Fill-12" points="45.293 107.022 42.882 109.604 22.905 109.604 22.905 99.251 0.863 99.251 0.863 130.957 56.486 130.957 67.162 120.281 67.162 99.251 45.293 99.251 45.293 107.022"></polyline>
                <polyline id="Fill-13" points="413.266 107.022 410.855 109.604 392.775 109.604 390.193 107.022 390.193 99.251 368.151 99.251 368.151 120.281 378.828 130.957 424.459 130.957 435.135 120.281 435.135 99.251 413.266 99.251 413.266 107.022"></polyline>
                <polyline id="Fill-14" points="124.672 107.366 122.091 109.776 105.56 109.776 103.148 107.366 103.148 99.251 81.279 99.251 81.279 120.281 91.955 130.957 136.038 130.957 146.715 120.281 146.715 99.251 124.672 99.251 124.672 107.366"></polyline>
                <polygon id="Fill-15" points="242.103 130.957 263.974 130.957 263.974 99.251 242.103 99.251"></polygon>
                <polyline id="Fill-16" points="300.995 50.71 309.586 74.971 353.001 74.971 353.001 0.083 331.13 0.083 331.13 74.825 302.716 0.083 279.127 0.083 279.127 74.971 300.995 74.971 300.995 50.71"></polyline>
                <polygon id="Fill-17" points="279.127 130.957 300.996 130.957 300.996 99.251 279.127 99.251"></polygon>
                <polygon id="Fill-18" points="413.266 93.79 435.135 93.79 435.135 80.429 413.266 80.429"></polygon>
                <polygon id="Fill-19" points="402.591 74.971 435.137 74.971 435.137 53.914 402.591 53.914"></polygon>
                <polyline id="Fill-20" points="390.193 23.58 392.775 20.996 410.855 20.996 413.266 23.58 413.266 37.87 435.135 37.87 435.135 10.836 424.459 0.159 378.828 0.159 368.151 10.836 368.151 74.971 390.193 74.971 390.193 23.58"></polyline>
                <polygon id="Fill-21" points="242.103 74.971 263.974 74.971 263.974 0.083 242.103 0.083"></polygon>
                <polyline id="Fill-22" points="179.885 74.971 208.938 74.971 205.431 66.38 232.466 0.083 210.424 0.083 194.411 39.345 178.393 0.083 156.352 0.083 183.39 66.38 179.885 74.971"></polyline>
                <path d="M45.293,51.227 L42.882,53.809 L22.905,53.809 L22.905,20.919 L42.882,20.919 L45.293,23.503 L45.293,51.227 L45.293,51.227 Z M67.162,74.818 L56.486,64.142 L67.162,53.465 L67.162,10.761 L56.486,0.083 L0.863,0.083 L0.863,74.971 L67.162,74.971 L67.162,74.818 L67.162,74.818 Z" id="Fill-23"></path>
                <polyline id="Fill-24" points="329.41 130.957 353.001 130.957 353.001 99.251 318.183 99.251 329.41 130.957"></polyline>
                <polyline id="Fill-25" points="103.148 23.848 105.56 21.437 122.091 21.437 124.672 23.848 124.672 74.971 146.715 74.971 146.715 10.761 136.038 0.083 91.955 0.083 81.279 10.761 81.279 74.971 103.148 74.971 103.148 23.848"></polyline>
                <polygon id="Fill-26" points="368.151 93.79 390.193 93.79 390.193 80.429 368.151 80.429"></polygon>
                <polyline id="Fill-27" points="172.207 93.79 194.259 93.79 194.411 93.416 194.564 93.79 216.614 93.79 211.164 80.429 177.658 80.429 172.207 93.79"></polyline>
                <polygon id="Fill-28" points="81.279 93.79 103.148 93.79 103.148 80.429 81.279 80.429"></polygon>
                <polygon id="Fill-29" points="124.672 93.79 146.715 93.79 146.715 80.429 124.672 80.429"></polygon>
                <polygon id="Fill-30" points="0.863 93.79 22.905 93.79 22.905 80.429 0.863 80.429"></polygon>
                <polygon id="Fill-31" points="45.293 93.79 67.162 93.79 67.162 80.429 45.293 80.429"></polygon>
                <polygon id="Fill-32" points="242.103 93.79 263.974 93.79 263.974 80.429 242.103 80.429"></polygon>
                <polygon id="Fill-33" points="279.127 93.79 300.996 93.79 300.996 80.429 279.127 80.429"></polygon>
                <polyline id="Fill-34" points="316.25 93.79 353.001 93.79 353.001 80.429 311.52 80.429 316.25 93.79"></polyline>
            </g>
        </g>
    </g>
</svg>