<?xml version="1.0" encoding="UTF-8" standalone="no"?>
<svg width="414px" height="274px" viewBox="0 0 414 274" version="1.1" xmlns="http://www.w3.org/2000/svg" xmlns:xlink="http://www.w3.org/1999/xlink">
    <!-- Generator: Sketch 39.1 (31720) - http://www.bohemiancoding.com/sketch -->
    <title>SportclubHetEiland_hoofdlogo_zonderURL_neg</title>
    <desc>Created with Sketch.</desc>
    <defs></defs>
    <g id="Page-1" stroke="none" stroke-width="1" fill="none" fill-rule="evenodd">
        <g id="SportclubHetEiland_hoofdlogo_zonderURL_neg" fill="#FFFFFF">
            <path d="M40.56,182.564 C40.561,212.26 40.561,241.956 40.56,271.653 C40.56,272.891 39.941,273.509 38.705,273.509 L26.905,273.509 C25.666,273.509 25.049,272.891 25.049,271.653 L25.049,233.737 L16.299,233.737 L16.299,271.653 C16.299,272.891 15.68,273.509 14.443,273.509 L2.645,273.509 C1.406,273.509 0.789,272.891 0.789,271.653 L0.789,182.564 C0.789,181.327 1.406,180.708 2.645,180.708 L14.443,180.708 C15.68,180.708 16.299,181.327 16.299,182.564 L16.299,218.225 L25.049,218.225 L25.049,182.564 C25.049,181.327 25.666,180.708 26.905,180.708 L38.705,180.708 C39.941,180.708 40.56,181.327 40.56,182.564" id="Fill-3"></path>
            <path d="M84.972,259.854 L84.972,271.653 C84.971,272.891 84.352,273.509 83.116,273.509 L54.348,273.509 C53.109,273.509 52.492,272.891 52.492,271.653 L52.492,182.564 C52.492,181.327 53.109,180.708 54.348,180.708 L83.116,180.708 C84.352,180.708 84.971,181.327 84.972,182.564 L84.972,194.362 C84.972,195.601 84.352,196.218 83.116,196.218 L68.002,196.218 L68.002,215.309 L81.127,215.309 C82.363,215.309 82.983,215.928 82.983,217.165 L82.983,228.964 C82.983,230.202 82.363,230.819 81.127,230.819 L68.002,230.819 L68.002,257.997 L83.116,257.997 C84.352,257.997 84.972,258.616 84.972,259.854" id="Fill-4"></path>
            <path d="M131.504,182.564 L131.504,194.362 C131.504,195.601 130.885,196.218 129.648,196.218 L120.236,196.218 L120.236,271.653 C120.236,272.891 119.616,273.509 118.38,273.509 L106.58,273.509 C106.137,273.509 105.719,273.332 105.321,272.978 C104.923,272.626 104.724,272.183 104.724,271.653 L104.724,196.218 L95.444,196.218 C94.206,196.218 93.588,195.601 93.588,194.362 L93.588,182.564 C93.588,181.327 94.206,180.708 95.444,180.708 L129.648,180.708 C130.885,180.708 131.504,181.327 131.504,182.564" id="Fill-5"></path>
            <path d="M190.762,259.854 L190.762,271.653 C190.762,272.891 190.142,273.509 188.906,273.509 L160.138,273.509 C158.899,273.509 158.282,272.891 158.282,271.653 L158.282,182.564 C158.282,181.327 158.899,180.708 160.138,180.708 L188.906,180.708 C190.142,180.708 190.762,181.327 190.762,182.564 L190.762,194.362 C190.762,195.601 190.142,196.218 188.906,196.218 L173.793,196.218 L173.793,215.309 L186.917,215.309 C188.154,215.309 188.773,215.928 188.773,217.165 L188.773,228.964 C188.773,230.202 188.154,230.819 186.917,230.819 L173.793,230.819 L173.793,257.997 L188.906,257.997 C190.142,257.997 190.762,258.616 190.762,259.854" id="Fill-6"></path>
            <path d="M217.54,271.653 C217.54,272.891 216.92,273.509 215.684,273.509 L203.885,273.509 C202.646,273.509 202.029,272.891 202.029,271.653 L202.029,182.564 C202.029,181.327 202.646,180.708 203.885,180.708 L215.684,180.708 C216.92,180.708 217.54,181.327 217.54,182.564 L217.54,271.653" id="Fill-7"></path>
            <path d="M263.938,259.854 L263.938,271.653 C263.938,272.891 263.319,273.509 262.083,273.509 L244.185,273.509 L243.92,273.509 L243.788,273.509 L231.989,273.509 C230.75,273.509 230.133,272.891 230.133,271.653 L230.133,182.564 C230.133,181.327 230.75,180.708 231.989,180.708 L243.787,180.708 C245.024,180.708 245.643,181.327 245.643,182.564 L245.643,257.997 L262.083,257.997 C263.319,257.997 263.938,258.616 263.938,259.854" id="Fill-8"></path>
            <path d="M293.899,242.486 C293.059,230.511 292.219,218.535 291.378,206.559 L290.32,206.559 C289.48,218.535 288.639,230.511 287.799,242.486 L293.899,242.486 L293.899,242.486 Z M311.664,271.653 C311.838,272.891 311.307,273.509 310.071,273.509 L298.01,273.509 C296.86,273.509 296.194,272.891 296.02,271.653 C295.595,265.926 295.382,263.062 294.957,257.335 L286.741,257.335 C286.316,263.062 286.104,265.926 285.679,271.653 C285.5,272.891 284.838,273.509 283.689,273.509 L271.628,273.509 C270.387,273.509 269.857,272.891 270.035,271.653 C273.35,241.956 276.664,212.26 279.979,182.564 C280.153,181.327 280.859,180.708 282.1,180.708 L299.599,180.708 C300.835,180.708 301.541,181.327 301.719,182.564 C305.034,212.26 308.349,241.956 311.664,271.653 L311.664,271.653 Z" id="Fill-9"></path>
            <path d="M362.836,182.564 L362.836,271.653 C362.836,272.891 362.216,273.509 360.979,273.509 L352.495,273.509 C351.964,273.509 351.454,273.33 350.971,272.978 C350.486,272.625 350.153,272.228 349.976,271.785 C345.292,257.158 340.608,242.531 335.923,227.903 L335.923,271.653 C335.923,272.891 335.305,273.509 334.068,273.509 L322.269,273.509 C321.03,273.509 320.412,272.891 320.412,271.653 L320.412,182.564 C320.412,181.327 321.03,180.708 322.269,180.708 L331.018,180.708 C331.547,180.708 332.057,180.885 332.542,181.238 C333.028,181.592 333.359,181.989 333.537,182.431 C338.133,196.616 342.729,210.802 347.325,224.987 C347.324,210.846 347.324,196.705 347.324,182.564 C347.324,181.327 347.943,180.708 349.182,180.708 L360.979,180.708 C362.216,180.708 362.836,181.327 362.836,182.564" id="Fill-10"></path>
            <path d="M397.7,198.074 C397.7,197.191 397.388,196.437 396.772,195.821 C396.155,195.204 395.401,194.892 394.519,194.892 L390.276,194.892 L390.276,259.323 L394.519,259.323 C395.401,259.323 396.153,259.015 396.772,258.395 C397.388,257.779 397.7,257.026 397.7,256.141 L397.7,198.074 L397.7,198.074 Z M396.507,180.708 C398.803,180.708 400.972,181.15 403.003,182.032 C405.033,182.915 406.804,184.11 408.306,185.613 C409.809,187.114 411.004,188.885 411.885,190.915 C412.768,192.947 413.211,195.114 413.211,197.411 L413.211,256.804 C413.211,259.104 412.767,261.269 411.885,263.3 C411.002,265.334 409.809,267.101 408.306,268.604 C406.802,270.107 405.033,271.3 403.003,272.183 C400.97,273.067 398.803,273.509 396.507,273.509 L376.621,273.509 C375.383,273.509 374.764,272.891 374.764,271.653 L374.764,182.564 C374.764,181.327 375.383,180.708 376.621,180.708 L396.507,180.708 L396.507,180.708 Z" id="Fill-11"></path>
            <path d="M213.323,55.798 L220.508,35.638 L212.276,37.914 C210.618,38.373 208.492,39.077 206.031,39.893 C194.948,43.565 176.512,49.669 157.416,48.506 L157.416,57.401 C176.516,58.432 195.021,52.85 206.261,49.167 L201.661,62.072 L197.782,72.928 L207.931,67.48 C207.98,67.454 212.94,64.858 222.646,62.316 C235.558,58.934 248.821,57.714 259.373,57.377 L259.373,48.488 C237.634,49.13 222.313,52.828 213.323,55.798" id="Fill-12"></path>
            <path d="M209.46,13.7 L238.011,42.25 C241.729,41.754 245.734,41.342 250.004,41.035 L209.46,0.491 L169.574,40.378 C175.124,39.887 180.478,38.898 185.456,37.704 L209.46,13.7" id="Fill-13"></path>
            <path d="M209.46,92.243 L180.905,63.688 C180.907,63.733 180.902,63.781 180.904,63.826 C177.108,64.455 173.19,64.916 169.199,65.19 L209.46,105.452 L248.964,65.948 C243.635,66.412 238.542,67.095 233.71,67.993 L209.46,92.243" id="Fill-14"></path>
            <path d="M81.138,154.198 L82.785,151.364 C83.15,150.725 83.926,150.725 84.338,151.046 C84.567,151.181 88.268,153.878 91.24,153.878 C93.616,153.878 95.398,152.325 95.398,150.358 C95.398,148.029 93.434,146.427 89.594,144.875 C85.299,143.137 81.003,140.394 81.003,135.002 C81.003,130.935 84.017,126.228 91.285,126.228 C95.948,126.228 99.512,128.604 100.426,129.289 C100.884,129.562 101.02,130.341 100.7,130.797 L98.964,133.402 C98.597,133.952 97.912,134.316 97.363,133.952 C96.998,133.723 93.525,131.438 91.011,131.438 C88.406,131.438 86.989,133.173 86.989,134.637 C86.989,136.784 88.68,138.247 92.382,139.756 C96.816,141.538 101.934,144.189 101.934,150.085 C101.934,154.792 97.866,159.135 91.423,159.135 C85.663,159.135 82.282,156.438 81.368,155.569 C80.956,155.157 80.727,154.93 81.138,154.198" id="Fill-15"></path>
            <path d="M107.786,127.552 C107.786,127.096 108.153,126.685 108.656,126.685 L119.396,126.685 C125.018,126.685 129.634,131.254 129.634,136.785 C129.634,142.453 125.018,147.069 119.441,147.069 L113.728,147.069 L113.728,157.81 C113.728,158.266 113.316,158.677 112.86,158.677 L108.656,158.677 C108.153,158.677 107.786,158.266 107.786,157.81 L107.786,127.552 L107.786,127.552 Z M119.029,141.492 C121.59,141.492 123.737,139.436 123.737,136.738 C123.737,134.224 121.59,132.306 119.029,132.306 L113.728,132.306 L113.728,141.492 L119.029,141.492 L119.029,141.492 Z" id="Fill-16"></path>
            <path d="M148.968,126.227 C158.109,126.227 165.421,133.586 165.421,142.727 C165.421,151.868 158.109,159.134 148.968,159.134 C139.827,159.134 132.559,151.868 132.559,142.727 C132.559,133.586 139.827,126.227 148.968,126.227 M148.968,153.192 C154.728,153.192 159.479,148.485 159.479,142.727 C159.479,136.968 154.728,132.169 148.968,132.169 C143.208,132.169 138.501,136.968 138.501,142.727 C138.501,148.485 143.208,153.192 148.968,153.192" id="Fill-17"></path>
            <path d="M171.411,127.552 C171.411,127.096 171.776,126.685 172.281,126.685 L185.351,126.685 C190.837,126.685 195.315,131.072 195.315,136.511 C195.315,140.716 192.527,144.144 188.55,145.743 L194.812,157.352 C195.133,157.946 194.812,158.677 194.036,158.677 L189.237,158.677 C188.826,158.677 188.596,158.448 188.505,158.266 L182.425,146.155 L177.353,146.155 L177.353,157.81 C177.353,158.266 176.942,158.677 176.486,158.677 L172.281,158.677 C171.776,158.677 171.411,158.266 171.411,157.81 L171.411,127.552 L171.411,127.552 Z M184.848,141.263 C187.271,141.263 189.373,139.161 189.373,136.602 C189.373,134.18 187.271,132.169 184.848,132.169 L177.398,132.169 L177.398,141.263 L184.848,141.263 L184.848,141.263 Z" id="Fill-18"></path>
            <path d="M206.149,132.168 L199.157,132.168 C198.654,132.168 198.287,131.757 198.287,131.301 L198.287,127.552 C198.287,127.096 198.654,126.685 199.157,126.685 L219.129,126.685 C219.632,126.685 219.997,127.096 219.997,127.552 L219.997,131.301 C219.997,131.757 219.632,132.168 219.129,132.168 L212.135,132.168 L212.135,157.81 C212.135,158.266 211.724,158.677 211.268,158.677 L207.016,158.677 C206.56,158.677 206.149,158.266 206.149,157.81 L206.149,132.168" id="Fill-19"></path>
            <path d="M238.601,126.227 C243.217,126.227 246.554,127.689 249.662,130.478 C250.073,130.843 250.073,131.39 249.708,131.757 L246.919,134.636 C246.598,135.003 246.142,135.003 245.777,134.636 C243.857,132.945 241.297,131.94 238.739,131.94 C232.888,131.94 228.545,136.83 228.545,142.589 C228.545,148.302 232.934,153.147 238.783,153.147 C241.526,153.147 243.857,152.095 245.777,150.542 C246.142,150.222 246.645,150.267 246.919,150.542 L249.753,153.468 C250.118,153.788 250.026,154.382 249.708,154.7 C246.598,157.717 242.669,159.134 238.601,159.134 C229.46,159.134 222.101,151.868 222.101,142.727 C222.101,133.586 229.46,126.227 238.601,126.227" id="Fill-20"></path>
            <path d="M255.696,127.552 C255.696,127.096 256.061,126.685 256.566,126.685 L260.771,126.685 C261.227,126.685 261.638,127.096 261.638,127.552 L261.638,153.194 L273.293,153.194 C273.796,153.194 274.161,153.603 274.161,154.061 L274.161,157.81 C274.161,158.266 273.796,158.677 273.293,158.677 L256.566,158.677 C256.061,158.677 255.696,158.266 255.696,157.81 L255.696,127.552" id="Fill-21"></path>
            <path d="M277.865,127.552 C277.865,127.096 278.276,126.685 278.732,126.685 L283.075,126.685 C283.578,126.685 283.945,127.096 283.945,127.552 L283.945,146.246 C283.945,150.13 286.594,153.194 290.572,153.194 C294.547,153.194 297.244,150.13 297.244,146.291 L297.244,127.552 C297.244,127.096 297.611,126.685 298.113,126.685 L302.454,126.685 C302.912,126.685 303.323,127.096 303.323,127.552 L303.323,146.566 C303.323,153.514 297.793,159.133 290.572,159.133 C283.395,159.133 277.865,153.514 277.865,146.566 L277.865,127.552" id="Fill-22"></path>
            <path d="M311.186,127.552 C311.186,127.096 311.551,126.685 312.056,126.685 L322.52,126.685 C327.96,126.685 332.164,130.34 332.164,135.139 C332.164,138.658 329.285,141.401 327.136,142.406 C329.559,143.183 333.078,145.652 333.078,149.857 C333.078,154.976 328.691,158.677 323.114,158.677 L312.056,158.677 C311.551,158.677 311.186,158.266 311.186,157.81 L311.186,127.552 L311.186,127.552 Z M321.973,140.122 C324.304,140.122 325.902,138.293 325.902,136.008 C325.902,133.721 324.304,132.122 321.973,132.122 L317.081,132.122 L317.081,140.122 L321.973,140.122 L321.973,140.122 Z M322.612,153.285 C324.898,153.285 326.725,151.503 326.725,149.125 C326.725,146.84 324.44,145.149 322.064,145.149 L317.081,145.149 L317.081,153.285 L322.612,153.285 L322.612,153.285 Z" id="Fill-23"></path>
        </g>
    </g>
</svg>