<?xml version="1.0" encoding="UTF-8" standalone="no"?>
<svg width="464px" height="113px" viewBox="0 0 464 113" version="1.1" xmlns="http://www.w3.org/2000/svg" xmlns:xlink="http://www.w3.org/1999/xlink">
    <!-- Generator: Sketch 39.1 (31720) - http://www.bohemiancoding.com/sketch -->
    <title>Group</title>
    <desc>Created with Sketch.</desc>
    <defs></defs>
    <g id="Page-1" stroke="none" stroke-width="1" fill="none" fill-rule="evenodd">
        <g id="SportclubHetEiland_Sublogo_Fitness_neg" transform="translate(0.000000, -100.000000)" fill="#000000">
            <g id="Group" transform="translate(0.000000, 100.000000)">
                <polyline id="Fill-3" points="0.574 110.203 0.574 2.576 56.539 2.576 56.539 27.89 29.503 27.89 29.503 47.005 49.651 47.005 49.651 70.941 29.503 70.941 29.503 110.203 0.574 110.203"></polyline>
                <polygon id="Fill-4" points="65.662 110.203 94.591 110.203 94.591 2.576 65.662 2.576"></polygon>
                <polyline id="Fill-5" points="122.657 110.203 122.657 27.89 103.198 27.89 103.198 2.576 171.046 2.576 171.046 27.89 151.587 27.89 151.587 110.203 122.657 110.203"></polyline>
                <polyline id="Fill-6" points="223.736 110.891 206.516 59.059 206.516 110.203 179.652 110.203 179.652 2.576 209.272 2.576 225.113 50.448 225.113 2.576 251.977 2.576 251.977 110.891 223.736 110.891"></polyline>
                <polyline id="Fill-7" points="265.059 110.203 265.059 2.576 320.508 2.576 320.508 26.513 293.472 26.513 293.472 44.077 313.104 44.077 313.104 68.013 293.472 68.013 293.472 86.267 320.508 86.267 320.508 110.203 265.059 110.203"></polyline>
                <path d="M334.452,78.173 C341.338,83.167 348.4,87.128 355.461,87.128 C359.937,87.128 363.036,84.372 363.036,80.412 C363.036,76.107 359.076,72.318 348.572,65.775 C336.002,57.854 328.596,48.383 328.596,32.712 C328.596,13.425 341.338,0.166 362.692,0.166 C373.54,0.166 384.906,4.299 391.45,8.949 L385.422,34.433 C378.364,28.751 371.13,25.48 365.105,25.48 C360.454,25.48 357.871,27.89 357.871,31.851 C357.871,35.812 360.454,38.739 369.753,44.249 C385.594,53.721 392.483,64.397 392.483,79.896 C392.483,99.01 378.536,112.613 357.527,112.613 C345.99,112.613 335.313,108.481 328.424,103.659 L334.452,78.173" id="Fill-8"></path>
                <path d="M405.395,78.173 C412.281,83.167 419.343,87.128 426.404,87.128 C430.88,87.128 433.979,84.372 433.979,80.412 C433.979,76.107 430.019,72.318 419.515,65.775 C406.944,57.854 399.539,48.383 399.539,32.712 C399.539,13.425 412.281,0.166 433.634,0.166 C444.483,0.166 455.848,4.299 462.393,8.949 L456.365,34.433 C449.306,28.751 442.073,25.48 436.048,25.48 C431.396,25.48 428.814,27.89 428.814,31.851 C428.814,35.812 431.396,38.739 440.696,44.249 C456.54,53.721 463.426,64.397 463.426,79.896 C463.426,99.01 449.479,112.613 428.47,112.613 C416.932,112.613 406.256,108.481 399.367,103.659 L405.395,78.173" id="Fill-9"></path>
            </g>
        </g>
    </g>
</svg>