<?xml version="1.0" encoding="UTF-8" standalone="no"?>
<svg width="430px" height="255px" viewBox="0 0 430 255" version="1.1" xmlns="http://www.w3.org/2000/svg" xmlns:xlink="http://www.w3.org/1999/xlink">
    <!-- Generator: Sketch 39.1 (31720) - http://www.bohemiancoding.com/sketch -->
    <title>Group</title>
    <desc>Created with Sketch.</desc>
    <defs></defs>
    <g id="Page-1" stroke="none" stroke-width="1" fill="none" fill-rule="evenodd">
        <g id="SportclubHetEiland_Sublogo_Cycling_neg" transform="translate(-110.000000, -239.000000)" fill="#FFFFFF">
            <g id="Group" transform="translate(110.000000, 239.000000)">
                <path d="M48.07,56.383 C68.462,54.749 84.204,37.347 88.828,25.418 C90.64,20.69 90.586,17.505 89.514,16.594 C87.97,14.723 85.53,14.124 82.18,14.592 C74.491,15.61 63.848,22.041 52.926,32.482 C46.445,38.58 40.25,45.852 34.518,53.884 C38.076,55.991 42.724,56.812 48.07,56.383 L48.07,56.383 Z M7.511,149.502 C2.062,141.174 -0.079,129.39 1.383,115.32 C2.681,101.669 7.459,86.738 14.862,72.199 C17.985,66.367 21.513,60.704 25.046,55.041 C24.173,54.114 23.289,52.987 22.597,51.851 C18.71,45.587 17.248,37.33 18.088,27.898 C18.991,19.26 22.219,9.834 26.964,1.881 C27.825,0.22 29.972,-0.351 31.633,0.51 C33.313,1.573 33.884,3.719 33.02,5.385 C28.61,12.513 25.895,20.898 25.128,28.731 C24.346,36.367 25.496,43.25 28.483,48.191 C28.713,48.57 28.924,48.751 29.154,49.13 C35.086,41.084 41.473,33.796 48.145,27.482 C60.172,15.959 71.957,8.837 81.229,7.692 C88.327,6.729 92.522,9.381 94.708,11.795 C97.783,15.337 98.046,21.093 95.219,28.096 C92.244,35.705 86.131,43.967 78.671,50.344 C72.319,55.634 61.89,62.249 48.622,63.312 C42.685,63.789 37.426,62.818 32.881,60.787 C32.056,60.458 31.235,60.122 30.392,59.594 C27.009,64.647 23.862,70.079 21.105,75.482 C14.034,89.201 9.571,103.111 8.227,116.171 C7.015,128.419 8.652,138.851 13.18,145.659 C17.698,152.273 24.515,155.313 33.624,154.582 C52.434,153.075 64.503,144.535 79.831,121.988 C80.891,120.305 83.053,119.935 84.536,121.011 C86.215,122.071 86.587,124.236 85.527,125.914 C77.324,137.927 70.386,145.857 62.848,151.243 C54.581,157.488 45.463,160.611 34.18,161.514 C22.497,162.452 13.207,158.412 7.511,149.502 L7.511,149.502 Z" id="Fill-3"></path>
                <path d="M98.203,189.66 C71.682,204.338 51.917,226.248 47.586,239.349 C46.955,241.39 46.252,245.034 47.976,246.689 C49.03,247.401 50.709,248.464 53.829,247.615 C61.229,245.43 71.552,235.036 82.011,218.853 C87.88,210.014 93.452,200.002 98.203,189.66 L98.203,189.66 Z M237.349,202.814 C235.86,204.131 233.649,203.906 232.532,202.403 C226.355,194.925 214.996,187.468 202.245,182.511 C185.358,175.697 165.606,172.897 145.805,174.484 C132.54,175.549 119.698,179.368 107.967,184.691 C102.464,198.081 95.349,211.209 87.889,222.568 C82.386,230.98 76.971,237.988 71.824,243.382 C65.916,249.24 60.429,252.864 55.756,254.237 C54.584,254.529 53.609,254.806 52.618,254.886 C49.254,255.155 45.989,254.223 43.409,251.84 C40.839,249.651 38.514,245.457 41.045,237.281 C45.043,225.006 59.066,208.538 76.922,195.15 C85.207,189.107 93.751,183.838 102.573,179.543 C104.751,174.388 106.744,169.445 108.327,164.336 L109.761,159.839 C111.842,153.495 114.259,146.325 116.657,138.963 C109.979,147.666 102.791,152.427 94.476,153.095 C86.952,153.697 82.887,150.236 80.852,147.21 C78.127,143.045 77.254,137.137 78.417,129.274 C79.58,121.408 82.794,111.785 87.877,100.618 C96.729,81.776 103.712,69.456 103.893,69.243 C104.757,67.582 106.901,67.012 108.583,68.072 C110.245,68.932 110.815,71.081 109.952,72.742 C109.77,72.958 102.969,85.061 94.301,103.689 C89.354,114.047 86.288,123.061 85.276,130.321 C84.352,136.169 84.914,140.707 86.72,143.353 C88.082,145.435 90.553,146.432 93.92,146.163 C107.976,145.035 116.527,127.414 125.606,108.952 C127.137,105.641 128.846,102.117 130.571,98.788 C130.556,98.591 130.755,98.575 130.755,98.575 C134.482,87.915 138.774,76.809 143.428,65.278 C144.078,63.433 146.192,62.466 147.856,63.33 C149.701,63.979 150.453,65.909 149.804,67.755 C135.388,104.183 124.313,137.55 116.303,161.906 C115.835,163.537 115.37,165.168 114.887,166.601 C113.92,169.469 112.773,172.55 111.625,175.629 C123.02,171.129 134.162,168.442 145.252,167.553 C166.237,165.87 186.799,168.806 204.902,175.923 C212.32,178.916 218.989,182.568 225.093,186.659 C230.164,190.239 234.67,194.259 237.76,198 C239.077,199.487 238.853,201.697 237.349,202.814 L237.349,202.814 Z" id="Fill-4"></path>
                <path d="M217.116,114.568 C216.95,114.979 211.369,122.4 202.834,130.26 C190.922,140.778 179.638,146.665 169.143,147.506 C158.055,148.395 152.51,143.857 149.605,139.905 C143.957,131.592 145.038,117.756 152.894,101.381 C163.936,77.582 179.115,60.624 192.19,57.187 C197.077,55.998 201.71,56.617 205.298,59.124 C208.046,61.092 209.656,63.753 210.139,67.301 C211.139,74.793 206.784,85.106 197.575,97.003 C196.301,98.504 194.123,98.677 192.64,97.599 C191.145,96.325 190.97,94.147 192.045,92.664 C203.259,78.416 203.646,70.81 203.241,68.256 C202.915,66.685 202.426,65.53 201.372,64.819 C199.264,63.395 196.856,63.186 193.936,64.017 C188.85,65.221 182.83,69.691 176.986,76.34 C170.598,83.627 164.398,93.288 159.103,104.272 C155.715,111.719 153.649,118.258 153.102,123.886 C152.706,128.897 153.452,133.223 155.455,135.852 C157.953,139.638 162.253,141.086 168.587,140.577 C190.17,138.848 211.438,110.837 211.604,110.426 C212.68,108.945 214.842,108.573 216.536,109.83 C218.019,110.909 218.391,113.067 217.116,114.568" id="Fill-5"></path>
                <path d="M226.352,93.104 C214.594,117.959 213.036,130.836 215.727,134.605 C215.975,135.183 216.863,136.307 219.832,136.068 C221.218,135.958 224.305,134.714 230.333,127.856 C234.718,122.921 239.179,116.387 243.32,110.875 C243.849,110.037 244.38,109.191 244.909,108.351 C246.183,106.858 248.349,106.483 249.829,107.563 C251.309,108.635 251.68,110.801 250.623,112.477 C250.073,113.12 249.545,113.96 248.817,114.815 C237.911,130.434 228.901,142.317 220.387,143 C214.646,143.46 211.456,140.926 209.88,138.66 C207.155,134.495 206.841,128.146 209.116,119.194 C210.87,111.281 214.679,101.61 220.127,90.015 C229.191,71.355 250.925,26.771 251.073,26.161 C251.937,24.495 254.066,23.73 255.73,24.594 C257.391,25.456 258.165,27.584 257.301,29.248 C257.132,29.66 235.416,74.443 226.352,93.104" id="Fill-6"></path>
                <path d="M286.156,36.3 C284.305,38.041 282.514,40.58 281.502,42.85 C281.001,44.088 279.865,44.775 278.675,44.87 C278.083,44.917 277.485,44.965 277.074,44.801 C275.211,43.953 274.462,42.022 275.111,40.177 C276.44,36.882 278.76,33.503 281.553,31.092 C282.846,29.79 285.054,30.015 286.356,31.302 C287.666,32.791 287.648,34.986 286.156,36.3 L286.156,36.3 Z M283.879,109.812 C283.335,110.453 282.801,111.293 282.076,112.148 C271.173,127.767 262.16,139.652 253.649,140.334 C247.905,140.795 244.715,138.259 243.136,135.994 C240.415,131.829 240.1,125.479 242.375,116.529 C244.132,108.614 247.938,98.945 253.387,87.348 C262.45,68.689 269.234,56.388 269.219,56.188 C270.282,54.509 272.23,53.955 274.09,54.804 C275.755,55.664 276.322,57.813 275.462,59.474 C275.277,59.69 268.69,71.975 259.611,90.437 C247.853,115.292 246.295,128.169 248.989,131.938 C249.234,132.516 250.122,133.64 253.094,133.403 C254.477,133.291 257.567,132.047 263.592,125.189 C267.98,120.254 272.438,113.72 276.579,108.208 C277.108,107.37 277.639,106.524 278.168,105.686 C279.445,104.191 281.605,103.818 283.088,104.896 C284.568,105.968 284.942,108.134 283.879,109.812 L283.879,109.812 Z" id="Fill-7"></path>
                <path d="M359.908,103.717 C359.358,104.358 358.833,105.198 358.105,106.053 C347.199,121.672 338.189,133.557 329.675,134.239 C323.737,134.715 320.741,132.164 319.165,129.899 C316.44,125.734 316.129,119.384 318.204,110.449 C320.158,102.521 323.952,92.65 329.412,81.254 C334.375,71.093 336.12,62.981 334.399,58.935 C333.695,57.597 332.641,56.885 331.007,56.417 C324.299,54.763 315.525,59.653 306.434,70.542 C298.422,79.955 290.345,93.554 285.773,106.072 C285.573,106.089 285.588,106.288 285.588,106.288 C279.614,123.705 275.812,135.964 275.827,136.163 C275.347,137.598 274.024,138.499 272.635,138.611 C272.242,138.643 271.828,138.475 271.417,138.311 C269.587,137.859 268.639,135.944 269.089,134.114 C269.255,133.7 282.402,91.4 297.848,52.899 C298.497,51.054 300.427,50.299 302.272,50.951 C304.121,51.599 304.888,53.73 304.223,55.376 C302.577,59.693 300.931,64.008 299.282,68.325 C299.814,67.487 300.545,66.633 301.088,65.989 C312.2,52.943 323.103,47.288 332.662,49.71 C336.32,50.61 339.086,52.782 340.545,56.051 C343.429,62.197 341.798,71.693 335.637,84.342 C323.671,109.014 322.109,121.891 324.819,125.858 C325.259,126.421 325.954,127.562 329.119,127.308 C330.506,127.196 333.595,125.952 339.621,119.094 C344.009,114.159 348.464,107.625 352.409,102.13 C353.136,101.275 353.665,100.429 354.2,99.591 C355.272,98.113 357.437,97.738 359.114,98.801 C360.596,99.873 360.971,102.039 359.908,103.717" id="Fill-8"></path>
                <path d="M404.692,90.761 C404.692,90.761 404.873,90.545 405.058,90.337 C407.456,82.968 410.216,75.175 413.164,67.166 C413.735,64.33 414.683,56.287 411.379,52.366 C409.851,50.695 407.61,50.078 404.242,50.349 C396.719,50.951 379.977,60.862 367.002,85.414 C363.019,92.907 360.421,100.289 359.561,106.933 C358.633,112.788 359.231,117.723 361.282,120.944 C363.303,123.771 366.598,125.1 371.152,124.735 C377.685,124.211 385.586,118.398 393.701,107.783 C400.195,99.292 404.707,90.961 404.692,90.761 L404.692,90.761 Z M428.751,45.393 C419.476,68.852 412.068,90.769 405.656,110.213 C401.309,123.113 397.628,134.369 393.834,144.239 C387.945,160.253 381.11,171.959 373.185,179.969 C364.532,188.833 354.372,193.833 342.094,194.818 C322.892,196.357 306.978,189.259 291.496,182.533 C263.619,170.421 234.516,157.808 181.483,194.738 C179.78,195.872 177.753,195.436 176.633,193.933 C175.5,192.227 175.938,190.205 177.442,189.086 C190.834,179.641 203.06,173.081 215.066,168.732 C225.715,164.89 235.736,163.09 245.914,163.272 C264.637,163.166 279.72,169.925 294.383,176.322 C309.654,182.87 324.118,189.283 341.539,187.887 C362.131,186.236 375.767,172.388 387.459,141.763 C390.421,133.952 393.303,125.153 396.682,115.115 C387.957,125.582 379.624,131.03 371.708,131.666 C362.596,132.396 357.878,128.191 355.595,124.59 C352.442,120.061 351.524,113.557 352.505,105.906 C353.716,98.635 356.444,90.447 360.959,82.111 C367.014,70.668 374.601,60.893 383.001,53.845 C390.264,47.481 397.749,43.893 403.686,43.417 C410.618,42.862 414.617,45.528 416.604,47.96 C417.474,48.887 418.38,50.208 418.887,51.564 C420.05,48.68 421.213,45.796 422.379,42.916 C423.028,41.071 425.142,40.104 426.803,40.968 C428.649,41.616 429.6,43.531 428.751,45.393 L428.751,45.393 Z" id="Fill-9"></path>
            </g>
        </g>
    </g>
</svg>