<?xml version="1.0" encoding="UTF-8" standalone="no"?>
<svg width="200px" height="72px" viewBox="0 0 200 72" version="1.1" xmlns="http://www.w3.org/2000/svg" xmlns:xlink="http://www.w3.org/1999/xlink">
    <!-- Generator: Sketch 39.1 (31720) - http://www.bohemiancoding.com/sketch -->
    <title>Group 2</title>
    <desc>Created with Sketch.</desc>
    <defs></defs>
    <g id="Page-1" stroke="none" stroke-width="1" fill="none" fill-rule="evenodd">
        <g id="SportclubHetEiland_Sublogo_Fitness_neg" transform="translate(-132.000000, 0.000000)" fill="#FFFFFF">
            <g id="Group-2" transform="translate(132.000000, 0.000000)">
                <path d="M19.946,27.757 L19.946,70.607 C19.946,71.203 19.648,71.5 19.053,71.5 L13.377,71.5 C12.782,71.5 12.485,71.203 12.485,70.607 L12.485,52.37 L8.276,52.37 L8.276,70.607 C8.276,71.203 7.978,71.5 7.384,71.5 L1.709,71.5 C1.113,71.5 0.816,71.203 0.816,70.607 L0.816,27.757 C0.816,27.162 1.113,26.864 1.709,26.864 L7.384,26.864 C7.978,26.864 8.276,27.162 8.276,27.757 L8.276,44.909 L12.485,44.909 L12.485,27.757 C12.485,27.162 12.782,26.864 13.377,26.864 L19.053,26.864 C19.648,26.864 19.946,27.162 19.946,27.757" id="Fill-10"></path>
                <path d="M41.306,64.932 L41.306,70.607 C41.306,71.203 41.009,71.5 40.414,71.5 L26.577,71.5 C25.981,71.5 25.684,71.203 25.684,70.607 L25.684,27.757 C25.684,27.162 25.981,26.864 26.577,26.864 L40.414,26.864 C41.009,26.864 41.306,27.162 41.306,27.757 L41.306,33.432 C41.306,34.027 41.009,34.324 40.414,34.324 L33.145,34.324 L33.145,43.507 L39.457,43.507 C40.052,43.507 40.35,43.805 40.35,44.399 L40.35,50.074 C40.35,50.67 40.052,50.967 39.457,50.967 L33.145,50.967 L33.145,64.039 L40.414,64.039 C41.009,64.039 41.306,64.337 41.306,64.932" id="Fill-11"></path>
                <path d="M63.688,27.757 L63.688,33.432 C63.688,34.027 63.39,34.324 62.795,34.324 L58.268,34.324 L58.268,70.607 C58.268,71.203 57.97,71.5 57.375,71.5 L51.7,71.5 C51.487,71.5 51.286,71.415 51.094,71.245 C50.903,71.075 50.807,70.862 50.807,70.607 L50.807,34.324 L46.344,34.324 C45.748,34.324 45.451,34.027 45.451,33.432 L45.451,27.757 C45.451,27.162 45.748,26.864 46.344,26.864 L62.795,26.864 C63.39,26.864 63.688,27.162 63.688,27.757" id="Fill-12"></path>
                <path d="M92.19,64.932 L92.19,70.607 C92.19,71.203 91.892,71.5 91.297,71.5 L77.46,71.5 C76.864,71.5 76.568,71.203 76.568,70.607 L76.568,27.757 C76.568,27.162 76.864,26.864 77.46,26.864 L91.297,26.864 C91.892,26.864 92.19,27.162 92.19,27.757 L92.19,33.432 C92.19,34.027 91.892,34.324 91.297,34.324 L84.028,34.324 L84.028,43.507 L90.34,43.507 C90.935,43.507 91.233,43.805 91.233,44.399 L91.233,50.074 C91.233,50.67 90.935,50.967 90.34,50.967 L84.028,50.967 L84.028,64.039 L91.297,64.039 C91.892,64.039 92.19,64.337 92.19,64.932" id="Fill-13"></path>
                <path d="M105.069,70.607 C105.069,71.203 104.772,71.5 104.177,71.5 L98.502,71.5 C97.906,71.5 97.609,71.203 97.609,70.607 L97.609,27.757 C97.609,27.162 97.906,26.864 98.502,26.864 L104.177,26.864 C104.771,26.864 105.069,27.162 105.069,27.757 L105.069,70.607" id="Fill-14"></path>
                <path d="M127.386,64.932 L127.386,70.607 C127.386,71.203 127.088,71.5 126.494,71.5 L117.885,71.5 L117.758,71.5 L117.694,71.5 L112.019,71.5 C111.423,71.5 111.127,71.203 111.127,70.607 C111.127,56.324 111.127,42.04 111.126,27.757 C111.126,27.162 111.423,26.864 112.019,26.864 L117.694,26.864 C118.289,26.864 118.587,27.162 118.587,27.757 L118.587,64.039 L126.494,64.039 C127.088,64.039 127.386,64.337 127.386,64.932" id="Fill-15"></path>
                <path d="M141.797,56.578 C141.393,50.818 140.989,45.058 140.584,39.298 L140.076,39.298 C139.671,45.058 139.267,50.818 138.863,56.578 L141.797,56.578 L141.797,56.578 Z M150.342,70.607 C150.425,71.203 150.17,71.5 149.575,71.5 L143.774,71.5 C143.221,71.5 142.901,71.203 142.817,70.607 C142.612,67.852 142.51,66.475 142.306,63.72 L138.354,63.72 C138.15,66.475 138.047,67.852 137.843,70.607 C137.757,71.203 137.439,71.5 136.886,71.5 L131.085,71.5 C130.488,71.5 130.233,71.203 130.319,70.607 C131.913,56.324 133.507,42.04 135.102,27.757 C135.185,27.162 135.525,26.864 136.122,26.864 L144.538,26.864 C145.133,26.864 145.472,27.162 145.558,27.757 C147.153,42.04 148.747,56.324 150.342,70.607 L150.342,70.607 Z" id="Fill-16"></path>
                <path d="M174.954,27.757 L174.954,70.607 C174.954,71.203 174.656,71.5 174.061,71.5 L169.98,71.5 C169.725,71.5 169.48,71.414 169.247,71.245 C169.014,71.075 168.854,70.884 168.769,70.671 C166.516,63.635 164.263,56.6 162.01,49.564 L162.01,70.607 C162.01,71.203 161.712,71.5 161.118,71.5 L155.442,71.5 C154.846,71.5 154.549,71.203 154.549,70.607 L154.549,27.757 C154.549,27.162 154.846,26.864 155.442,26.864 L159.651,26.864 C159.905,26.864 160.15,26.949 160.384,27.119 C160.617,27.289 160.776,27.48 160.862,27.693 C163.073,34.516 165.283,41.339 167.494,48.162 L167.494,27.757 C167.494,27.162 167.791,26.864 168.387,26.864 L174.061,26.864 C174.656,26.864 174.954,27.162 174.954,27.757" id="Fill-17"></path>
                <path d="M191.723,35.217 C191.723,34.792 191.573,34.43 191.277,34.133 C190.98,33.836 190.617,33.687 190.193,33.687 L188.152,33.687 L188.152,64.676 L190.193,64.676 C190.617,64.676 190.979,64.528 191.277,64.23 C191.573,63.934 191.723,63.572 191.723,63.146 L191.723,35.217 L191.723,35.217 Z M191.149,26.864 C192.254,26.864 193.297,27.077 194.274,27.501 C195.25,27.926 196.102,28.501 196.825,29.223 C197.547,29.945 198.122,30.797 198.546,31.773 C198.971,32.751 199.184,33.793 199.184,34.898 L199.184,63.465 C199.184,64.571 198.97,65.612 198.546,66.59 C198.121,67.568 197.547,68.418 196.825,69.14 C196.101,69.863 195.251,70.437 194.274,70.862 C193.296,71.287 192.254,71.5 191.149,71.5 L181.585,71.5 C180.989,71.5 180.692,71.203 180.692,70.607 L180.692,27.757 C180.692,27.162 180.989,26.864 181.585,26.864 L191.149,26.864 L191.149,26.864 Z" id="Fill-18"></path>
                <path d="M39.463,14.113 L40.255,12.75 C40.43,12.443 40.804,12.443 41.002,12.597 C41.112,12.662 42.892,13.959 44.322,13.959 C45.465,13.959 46.322,13.212 46.322,12.267 C46.322,11.146 45.377,10.376 43.53,9.629 C41.464,8.793 39.398,7.474 39.398,4.88 C39.398,2.924 40.847,0.66 44.343,0.66 C46.586,0.66 48.3,1.803 48.74,2.132 C48.96,2.264 49.026,2.639 48.871,2.858 L48.037,4.111 C47.86,4.375 47.531,4.551 47.266,4.375 C47.091,4.265 45.421,3.166 44.212,3.166 C42.959,3.166 42.277,4.001 42.277,4.705 C42.277,5.737 43.09,6.441 44.871,7.167 C47.003,8.024 49.465,9.299 49.465,12.135 C49.465,14.399 47.508,16.488 44.41,16.488 C41.639,16.488 40.013,15.191 39.573,14.773 C39.375,14.575 39.265,14.465 39.463,14.113" id="Fill-19"></path>
                <path d="M52.28,1.297 C52.28,1.078 52.456,0.88 52.698,0.88 L57.864,0.88 C60.568,0.88 62.788,3.078 62.788,5.738 C62.788,8.464 60.568,10.685 57.886,10.685 L55.138,10.685 L55.138,15.851 C55.138,16.07 54.94,16.268 54.721,16.268 L52.698,16.268 C52.456,16.268 52.28,16.07 52.28,15.851 L52.28,1.297 L52.28,1.297 Z M57.688,8.002 C58.919,8.002 59.952,7.013 59.952,5.715 C59.952,4.506 58.919,3.584 57.688,3.584 L55.138,3.584 L55.138,8.002 L57.688,8.002 L57.688,8.002 Z" id="Fill-20"></path>
                <path d="M72.088,0.66 C76.484,0.66 80.001,4.199 80.001,8.596 C80.001,12.993 76.484,16.487 72.088,16.487 C67.691,16.487 64.195,12.993 64.195,8.596 C64.195,4.199 67.691,0.66 72.088,0.66 M72.088,13.629 C74.858,13.629 77.143,11.365 77.143,8.596 C77.143,5.826 74.858,3.518 72.088,3.518 C69.317,3.518 67.053,5.826 67.053,8.596 C67.053,11.365 69.317,13.629 72.088,13.629" id="Fill-21"></path>
                <path d="M82.882,1.297 C82.882,1.078 83.058,0.88 83.301,0.88 L89.587,0.88 C92.226,0.88 94.38,2.99 94.38,5.606 C94.38,7.629 93.039,9.277 91.126,10.047 L94.138,15.63 C94.292,15.916 94.138,16.268 93.764,16.268 L91.456,16.268 C91.258,16.268 91.148,16.158 91.104,16.07 L88.18,10.245 L85.74,10.245 L85.74,15.851 C85.74,16.07 85.542,16.268 85.323,16.268 L83.301,16.268 C83.058,16.268 82.882,16.07 82.882,15.851 L82.882,1.297 L82.882,1.297 Z M89.345,7.892 C90.511,7.892 91.522,6.881 91.522,5.65 C91.522,4.485 90.511,3.518 89.345,3.518 L85.762,3.518 L85.762,7.892 L89.345,7.892 L89.345,7.892 Z" id="Fill-22"></path>
                <path d="M99.591,3.518 L96.227,3.518 C95.986,3.518 95.809,3.32 95.809,3.1 L95.809,1.297 C95.809,1.078 95.986,0.88 96.227,0.88 L105.834,0.88 C106.076,0.88 106.251,1.078 106.251,1.297 L106.251,3.1 C106.251,3.32 106.076,3.518 105.834,3.518 L102.47,3.518 L102.47,15.85 C102.47,16.07 102.272,16.268 102.053,16.268 L100.008,16.268 C99.788,16.268 99.591,16.07 99.591,15.85 L99.591,3.518" id="Fill-23"></path>
                <path d="M115.199,0.66 C117.42,0.66 119.025,1.363 120.519,2.705 C120.717,2.88 120.717,3.143 120.542,3.32 L119.2,4.704 C119.046,4.881 118.827,4.881 118.651,4.704 C117.728,3.891 116.496,3.408 115.266,3.408 C112.452,3.408 110.363,5.76 110.363,8.53 C110.363,11.278 112.474,13.608 115.287,13.608 C116.606,13.608 117.728,13.102 118.651,12.355 C118.827,12.201 119.069,12.222 119.2,12.355 L120.563,13.762 C120.739,13.916 120.695,14.202 120.542,14.355 C119.046,15.806 117.156,16.487 115.199,16.487 C110.803,16.487 107.263,12.993 107.263,8.596 C107.263,4.199 110.803,0.66 115.199,0.66" id="Fill-24"></path>
                <path d="M123.422,1.297 C123.422,1.078 123.598,0.88 123.84,0.88 L125.863,0.88 C126.082,0.88 126.28,1.078 126.28,1.297 L126.28,13.63 L131.886,13.63 C132.128,13.63 132.303,13.827 132.303,14.048 L132.303,15.851 C132.303,16.07 132.128,16.268 131.886,16.268 L123.84,16.268 C123.598,16.268 123.422,16.07 123.422,15.851 L123.422,1.297" id="Fill-25"></path>
                <path d="M134.085,1.297 C134.085,1.078 134.283,0.88 134.502,0.88 L136.591,0.88 C136.832,0.88 137.009,1.078 137.009,1.297 L137.009,10.289 C137.009,12.157 138.283,13.63 140.197,13.63 C142.109,13.63 143.406,12.157 143.406,10.31 L143.406,1.297 C143.406,1.078 143.582,0.88 143.824,0.88 L145.911,0.88 C146.132,0.88 146.33,1.078 146.33,1.297 L146.33,10.443 C146.33,13.784 143.67,16.487 140.197,16.487 C136.745,16.487 134.085,13.784 134.085,10.443 L134.085,1.297" id="Fill-26"></path>
                <path d="M150.111,1.297 C150.111,1.078 150.287,0.88 150.53,0.88 L155.563,0.88 C158.179,0.88 160.202,2.638 160.202,4.946 C160.202,6.639 158.817,7.958 157.783,8.442 C158.949,8.815 160.641,10.003 160.641,12.025 C160.641,14.487 158.531,16.268 155.849,16.268 L150.53,16.268 C150.287,16.268 150.111,16.07 150.111,15.851 L150.111,1.297 L150.111,1.297 Z M155.3,7.343 C156.421,7.343 157.19,6.463 157.19,5.364 C157.19,4.264 156.421,3.495 155.3,3.495 L152.947,3.495 L152.947,7.343 L155.3,7.343 L155.3,7.343 Z M155.607,13.674 C156.707,13.674 157.586,12.817 157.586,11.673 C157.586,10.574 156.487,9.761 155.344,9.761 L152.947,9.761 L152.947,13.674 L155.607,13.674 L155.607,13.674 Z" id="Fill-27"></path>
            </g>
        </g>
    </g>
</svg>