<?xml version="1.0" encoding="UTF-8" standalone="no"?>
<svg width="342px" height="151px" viewBox="0 0 342 151" version="1.1" xmlns="http://www.w3.org/2000/svg" xmlns:xlink="http://www.w3.org/1999/xlink">
    <!-- Generator: Sketch 39.1 (31720) - http://www.bohemiancoding.com/sketch -->
    <title>Group</title>
    <desc>Created with Sketch.</desc>
    <defs></defs>
    <g id="Page-1" stroke="none" stroke-width="1" fill="none" fill-rule="evenodd">
        <g id="SportclubHetEiland_Sublogo_Yoga_neg" transform="translate(-154.000000, -278.000000)" fill="#000000">
            <g id="Group" transform="translate(154.000000, 278.000000)">
                <path d="M58.548,2.596 L58.446,2.555 C57.279,2.135 56.26,2.139 55.409,2.565 C54.628,2.958 54.074,3.659 53.761,4.649 L30.54,63.348 L7.32,4.65 C6.933,3.42 6.214,2.838 5.674,2.566 C4.823,2.139 3.8,2.133 2.637,2.556 L2.537,2.596 C0.671,3.425 -0.081,5.13 0.527,7.155 L26.872,73.823 L26.872,144.489 C26.872,146.751 28.278,148.156 30.54,148.156 C32.803,148.156 34.209,146.751 34.209,144.489 L34.209,73.823 L60.513,7.276 L60.554,7.158 C61.165,5.134 60.415,3.428 58.548,2.596" id="Fill-3"></path>
                <path d="M144.357,33.92 L144.157,116.107 C144.157,119.026 143.967,121.556 143.593,123.624 C143.214,125.699 142.573,127.969 141.689,130.371 C140.84,132.672 139.487,134.821 137.67,136.759 C133.651,141.023 127.917,143.185 120.629,143.185 C113.603,143.185 108.069,141.09 104.181,136.958 C102.364,135.021 101.016,132.783 100.172,130.305 C99.284,127.711 98.641,125.269 98.259,123.049 C97.884,120.856 97.759,118.143 97.888,114.925 L97.888,33.924 C97.888,29.399 98.55,25.404 99.856,22.051 C101.152,18.716 102.862,15.972 104.935,13.895 C107.012,11.822 109.453,10.246 112.191,9.212 C114.97,8.165 117.809,7.634 120.629,7.634 C123.347,7.634 126.174,8.106 129.034,9.038 C131.837,9.952 134.41,11.44 136.679,13.461 C138.932,15.471 140.792,18.177 142.209,21.502 C143.634,24.85 144.357,29.029 144.357,33.92 L144.357,33.92 Z M140.914,7.749 C138.154,5.405 134.978,3.591 131.475,2.355 C124.467,-0.119 116.706,-0.177 109.823,2.573 C106.403,3.942 103.279,5.816 100.486,8.192 C93.894,14.372 90.551,23.029 90.551,33.924 L90.551,118.078 C90.551,119.992 90.756,122.291 91.16,124.909 C91.569,127.571 92.359,130.429 93.509,133.399 C94.687,136.457 96.482,139.275 98.833,141.764 C104.095,147.444 111.428,150.324 120.629,150.324 C129.953,150.324 137.413,147.448 142.806,141.774 C145.155,139.288 146.947,136.545 148.132,133.619 C149.28,130.777 150.136,128.075 150.673,125.588 C151.226,123.016 151.494,120.883 151.494,119.064 L151.494,33.924 C151.494,22.749 147.942,13.949 140.914,7.749 L140.914,7.749 Z" id="Fill-4"></path>
                <path d="M218.833,82.603 C218.833,84.865 220.239,86.27 222.502,86.27 L240.709,86.27 L240.709,116.107 C240.709,119.031 240.519,121.56 240.142,123.626 C239.77,125.68 239.101,127.938 238.153,130.34 C237.243,132.645 235.853,134.806 234.023,136.759 C230.003,141.023 224.27,143.185 216.981,143.185 C209.865,143.185 204.49,141.089 200.535,136.76 C198.711,134.818 197.324,132.599 196.412,130.164 C195.467,127.649 194.83,125.269 194.521,123.089 C194.204,120.88 194.044,118.133 194.044,114.925 L194.044,33.529 C194.044,29.009 194.704,25.051 196.007,21.764 C197.308,18.485 199.052,15.738 201.192,13.598 C203.318,11.473 205.782,9.901 208.516,8.926 C213.964,6.992 219.6,6.937 225.17,8.835 C227.844,9.747 230.279,11.227 232.408,13.235 C234.54,15.246 236.31,17.954 237.666,21.284 C239.032,24.64 239.725,28.826 239.725,33.725 C239.725,35.866 241.13,37.196 243.393,37.196 C245.533,37.196 246.862,35.866 246.862,33.725 C246.862,27.645 245.961,22.411 244.184,18.166 C242.395,13.908 240.018,10.385 237.12,7.696 C234.223,5.003 230.956,3.037 227.408,1.851 C220.116,-0.573 212.835,-0.47 206.089,2.175 C202.583,3.551 199.48,5.434 196.839,7.798 C190.246,13.979 186.904,22.637 186.904,33.529 L186.904,114.531 C186.904,114.919 186.87,116.02 186.808,117.825 C186.735,119.782 186.935,122.048 187.422,124.749 C187.897,127.396 188.718,130.241 189.863,133.203 C191.041,136.258 192.828,139.132 195.189,141.763 C200.447,147.444 207.779,150.324 216.981,150.324 C226.445,150.324 233.914,147.374 239.163,141.577 C241.514,139.083 243.304,136.377 244.483,133.533 C245.629,130.764 246.485,128.091 247.025,125.59 C247.57,123.067 247.847,120.839 247.847,118.966 L247.847,78.935 L222.502,78.935 C220.239,78.935 218.833,80.341 218.833,82.603" id="Fill-5"></path>
                <path d="M327.329,109.681 L292.762,109.681 L310.044,23.97 L327.329,109.681 L327.329,109.681 Z M341.439,144.025 L313.516,4.998 L313.516,3.254 L313.12,3.254 L313.12,2.663 L312.924,2.663 L312.924,2.466 L312.728,2.466 L312.728,2.269 L311.458,2.269 L311.262,2.071 L307.756,2.071 L307.756,2.466 L307.166,2.466 L307.166,2.663 L306.967,2.663 L306.967,2.859 L306.771,2.859 L306.771,3.647 L306.647,3.647 L278.419,144.195 C278.212,145.23 278.36,146.126 278.858,146.857 C279.38,147.625 280.236,148.12 281.4,148.33 L282.058,148.353 C283.801,148.353 285.05,147.366 285.5,145.579 L291.364,117.016 L328.719,117.016 L334.408,145.637 C334.834,147.363 336.155,148.353 338.032,148.353 L338.572,148.353 L338.717,148.325 C339.742,148.121 340.575,147.607 341.121,146.841 C341.736,145.984 341.846,144.992 341.439,144.025 L341.439,144.025 Z" id="Fill-6"></path>
            </g>
        </g>
    </g>
</svg>