<?xml version="1.0" encoding="UTF-8"?>
<svg width="444px" height="145px" viewBox="0 0 444 145" version="1.1" xmlns="http://www.w3.org/2000/svg" xmlns:xlink="http://www.w3.org/1999/xlink">
    <!-- Generator: Sketch 41.2 (35397) - http://www.bohemiancoding.com/sketch -->
    <title>Group</title>
    <desc>Created with Sketch.</desc>
    <defs></defs>
    <g id="Page-1" stroke="none" stroke-width="1" fill="none" fill-rule="evenodd">
        <g id="SportclubHetEiland_Sublogo_Impact_Kleur-neg" transform="translate(-103.000000, -275.000000)" fill="#FFFFFF">
            <g id="Group" transform="translate(103.000000, 275.000000)">
                <polyline id="Fill-22" points="29.076 143.676 0.631 143.676 0.631 21.419 29.076 1.454 29.076 143.676"></polyline>
                <polyline id="Fill-23" points="64.222 49.606 64.222 143.676 41.465 143.676 41.465 1.454 82.507 1.454 90.634 87.6 99.371 1.454 140.615 1.454 140.615 143.676 112.577 143.676 112.577 50.622 101.808 143.676 74.99 143.676 64.222 49.606"></polyline>
                <path d="M187.34,25.834 L181.245,25.834 L181.245,69.923 L187.34,69.923 C190.793,69.923 192.419,68.299 192.419,64.844 L192.419,30.913 C192.419,27.46 190.793,25.834 187.34,25.834 Z M181.245,143.676 L152.799,143.676 L152.799,1.454 L194.451,1.454 C212.126,1.454 220.863,10.19 220.863,27.866 L220.863,67.892 C220.863,85.568 212.126,94.306 194.451,94.306 L181.245,94.306 L181.245,143.676 L181.245,143.676 Z" id="Fill-24"></path>
                <path d="M252.149,98.164 L264.747,98.164 L258.449,36.197 L252.149,98.164 Z M269.624,143.676 L267.39,122.952 L249.51,122.952 L247.479,143.676 L221.674,143.676 L240.367,1.454 L279.172,1.454 L297.865,143.676 L269.624,143.676 L269.624,143.676 Z" id="Fill-25"></path>
                <path d="M374.867,80.895 L374.867,118.482 C374.867,136.158 366.13,144.895 348.455,144.895 L330.98,144.895 C313.304,144.895 304.568,136.158 304.568,118.482 L304.568,26.647 C304.568,8.97 313.304,0.235 330.98,0.235 L348.047,0.235 C365.725,0.235 374.461,8.97 374.461,26.647 L374.461,59.967 L346.423,59.967 L346.423,29.694 C346.423,26.241 344.797,24.615 341.342,24.615 L338.092,24.615 C334.639,24.615 333.013,26.241 333.013,29.694 L333.013,115.436 C333.013,118.889 334.639,120.515 338.092,120.515 L341.749,120.515 C345.202,120.515 346.828,118.889 346.828,115.436 L346.828,80.895 L374.867,80.895" id="Fill-26"></path>
                <polyline id="Fill-27" points="397.654 143.676 397.654 26.85 380.385 26.85 380.385 1.454 443.369 1.454 443.369 26.85 426.1 26.85 426.1 123.71 397.654 143.676"></polyline>
            </g>
        </g>
    </g>
</svg>